<?xml version="1.0" standalone="no"?>
<!DOCTYPE svg PUBLIC "-//W3C//DTD SVG 20010904//EN"
 "http://www.w3.org/TR/2001/REC-SVG-20010904/DTD/svg10.dtd">
<svg version="1.0" xmlns="http://www.w3.org/2000/svg"
 width="150.000000px" height="150.000000px" viewBox="0 0 150.000000 150.000000"
 preserveAspectRatio="xMidYMid meet">
<metadata>
Created by potrace 1.10, written by Peter Selinger 2001-2011
</metadata>
<g transform="translate(0.000000,150.000000) scale(0.100000,-0.100000)"
fill="#616161" stroke="none">
<path d="M270 750 l0 -640 480 0 480 0 0 490 0 490 -50 0 -50 0 0 50 0 50 -50
0 -50 0 0 50 0 50 -50 0 -50 0 0 50 0 50 -330 0 -330 0 0 -640z m560 390 l0
-150 150 0 150 0 0 -390 0 -390 -380 0 -380 0 0 540 0 540 230 0 230 0 0 -150z"/>
<path d="M480 760 l0 -50 280 0 280 0 0 50 0 50 -280 0 -280 0 0 -50z"/>
<path d="M480 590 l0 -50 280 0 280 0 0 50 0 50 -280 0 -280 0 0 -50z"/>
<path d="M480 430 l0 -50 280 0 280 0 0 50 0 50 -280 0 -280 0 0 -50z"/>
</g>
</svg>
