<?xml version="1.0" standalone="no"?>
<!DOCTYPE svg PUBLIC "-//W3C//DTD SVG 20010904//EN"
 "http://www.w3.org/TR/2001/REC-SVG-20010904/DTD/svg10.dtd">
<svg version="1.0" xmlns="http://www.w3.org/2000/svg"
 width="150.000000px" height="150.000000px" viewBox="0 0 150.000000 150.000000"
 preserveAspectRatio="xMidYMid meet">
<metadata>
Created by potrace 1.10, written by Peter Selinger 2001-2011
</metadata>
<g transform="translate(0.000000,150.000000) scale(0.100000,-0.100000)"
fill="#616161" stroke="none">
<path d="M260 1000 l0 -110 -115 0 -115 0 0 -45 0 -45 115 0 115 0 0 -115 0
-115 45 0 45 0 0 115 0 115 115 0 115 0 0 45 0 45 -115 0 -115 0 0 110 0 110
-45 0 -45 0 0 -110z"/>
<path d="M850 1000 l0 -110 -115 0 -115 0 0 -45 0 -45 115 0 115 0 0 -115 0
-115 45 0 45 0 0 115 0 115 115 0 115 0 0 45 0 45 -115 0 -115 0 0 110 0 110
-45 0 -45 0 0 -110z"/>
<path d="M1300 1005 l0 -65 50 0 50 0 0 65 0 65 -50 0 -50 0 0 -65z"/>
<path d="M1286 572 c-20 -77 -36 -142 -36 -145 0 -4 13 -7 28 -7 25 0 31 7 54
63 15 34 42 99 62 145 l35 82 -53 0 -53 0 -37 -138z"/>
</g>
</svg>
