<?xml version="1.0" standalone="no"?>
<!DOCTYPE svg PUBLIC "-//W3C//DTD SVG 20010904//EN"
 "http://www.w3.org/TR/2001/REC-SVG-20010904/DTD/svg10.dtd">
<svg version="1.0" xmlns="http://www.w3.org/2000/svg"
 width="150.000000px" height="150.000000px" viewBox="0 0 150.000000 150.000000"
 preserveAspectRatio="xMidYMid meet">
<metadata>
Created by potrace 1.10, written by Peter Selinger 2001-2011
</metadata>
<g transform="translate(0.000000,150.000000) scale(0.100000,-0.100000)"
fill="#ffffff" stroke="none">
<path d="M240 935 l0 -315 70 0 70 0 0 315 0 315 -70 0 -70 0 0 -315z"/>
<path d="M520 885 l0 -75 430 0 430 0 0 75 0 75 -430 0 -430 0 0 -75z"/>
<path d="M520 635 l0 -75 430 0 430 0 0 75 0 75 -430 0 -430 0 0 -75z"/>
<path d="M240 440 l0 -60 65 0 65 0 0 60 0 60 -65 0 -65 0 0 -60z"/>
</g>
</svg>
