<?xml version="1.0" standalone="no"?>
<!DOCTYPE svg PUBLIC "-//W3C//DTD SVG 20010904//EN"
 "http://www.w3.org/TR/2001/REC-SVG-20010904/DTD/svg10.dtd">
<svg version="1.0" xmlns="http://www.w3.org/2000/svg"
 width="150.000000px" height="150.000000px" viewBox="0 0 150.000000 150.000000"
 preserveAspectRatio="xMidYMid meet">
<metadata>
Created by potrace 1.10, written by Peter Selinger 2001-2011
</metadata>
<g transform="translate(0.000000,150.000000) scale(0.100000,-0.100000)"
fill="#ffffff" stroke="none">
<path d="M357 1266 c-87 -32 -108 -74 -117 -238 -6 -97 -12 -135 -26 -159 -23
-38 -77 -69 -121 -69 -32 0 -33 -1 -33 -40 0 -38 2 -40 31 -40 46 0 96 -28
120 -67 18 -29 23 -57 29 -168 6 -121 9 -138 32 -173 34 -50 86 -75 171 -80
l67 -4 0 36 0 36 -45 0 c-57 0 -97 20 -114 57 -7 15 -16 82 -20 148 -8 142
-21 174 -93 220 -26 17 -47 32 -47 35 0 3 21 19 47 35 72 46 88 85 94 224 3
64 10 127 17 139 17 31 63 52 116 52 45 0 45 0 45 35 l0 35 -57 0 c-32 -1 -75
-7 -96 -14z"/>
<path d="M990 1245 c0 -35 0 -35 45 -35 56 0 97 -20 113 -55 7 -14 12 -62 12
-105 0 -43 5 -101 11 -128 12 -57 62 -123 109 -142 16 -7 30 -15 29 -19 0 -3
-21 -19 -47 -36 -73 -47 -94 -93 -99 -228 -2 -62 -9 -125 -15 -140 -14 -36
-55 -57 -113 -57 -45 0 -45 0 -45 -35 l0 -35 54 0 c94 0 161 34 192 97 12 27
19 74 24 164 5 98 11 133 26 159 23 39 76 70 121 70 32 0 33 2 33 39 0 38 0
38 -45 43 -100 12 -126 56 -135 223 -4 86 -11 131 -24 158 -31 63 -98 97 -192
97 l-54 0 0 -35z"/>
<path d="M690 965 l0 -75 65 0 65 0 0 75 0 75 -65 0 -65 0 0 -75z"/>
<path d="M706 538 c-24 -88 -76 -284 -76 -291 0 -4 17 -7 38 -7 l37 0 70 166
c39 91 72 169 73 175 2 5 -25 9 -61 9 l-66 0 -15 -52z"/>
</g>
</svg>
