<?xml version="1.0" standalone="no"?>
<!DOCTYPE svg PUBLIC "-//W3C//DTD SVG 20010904//EN"
 "http://www.w3.org/TR/2001/REC-SVG-20010904/DTD/svg10.dtd">
<svg version="1.0" xmlns="http://www.w3.org/2000/svg"
 width="150.000000px" height="150.000000px" viewBox="0 0 150.000000 150.000000"
 preserveAspectRatio="xMidYMid meet">
<metadata>
Created by potrace 1.10, written by Peter Selinger 2001-2011
</metadata>
<g transform="translate(0.000000,150.000000) scale(0.100000,-0.100000)"
fill="#ffffff" stroke="none">
<path d="M270 750 l0 -480 280 0 280 0 0 80 0 80 -200 0 -200 0 0 320 0 320
280 0 280 0 0 -130 0 -130 -35 0 c-19 0 -35 -3 -35 -6 0 -17 154 -264 160
-257 9 10 150 253 150 259 0 2 -18 4 -40 4 l-40 0 0 210 0 210 -440 0 -440 0
0 -480z"/>
<path d="M990 350 l0 -80 80 0 80 0 0 80 0 80 -80 0 -80 0 0 -80z"/>
</g>
</svg>
