<?xml version="1.0" standalone="no"?>
<!DOCTYPE svg PUBLIC "-//W3C//DTD SVG 20010904//EN"
 "http://www.w3.org/TR/2001/REC-SVG-20010904/DTD/svg10.dtd">
<svg version="1.0" xmlns="http://www.w3.org/2000/svg"
 width="150.000000px" height="150.000000px" viewBox="0 0 150.000000 150.000000"
 preserveAspectRatio="xMidYMid meet">
<metadata>
Created by potrace 1.10, written by Peter Selinger 2001-2011
</metadata>
<g transform="translate(0.000000,150.000000) scale(0.100000,-0.100000)"
fill="#616161" stroke="none">
<path d="M230 750 l0 -600 25 0 25 0 0 165 0 165 130 0 130 0 0 -165 0 -165
25 0 25 0 0 165 0 165 130 0 130 0 0 -100 c0 -100 0 -100 25 -100 25 0 25 0
25 100 l0 100 95 0 c95 0 95 0 95 25 0 25 0 25 -95 25 l-95 0 0 180 0 180 185
0 185 0 0 25 0 25 -185 0 -185 0 0 180 0 180 185 0 185 0 0 25 0 25 -520 0
-520 0 0 -600z m310 370 l0 -180 -130 0 -130 0 0 180 0 180 130 0 130 0 0
-180z m310 0 l0 -180 -130 0 -130 0 0 180 0 180 130 0 130 0 0 -180z m-310
-410 l0 -180 -130 0 -130 0 0 180 0 180 130 0 130 0 0 -180z m310 0 l0 -180
-130 0 -130 0 0 180 0 180 130 0 130 0 0 -180z"/>
<path d="M330 1120 l0 -80 80 0 80 0 0 80 0 80 -80 0 -80 0 0 -80z"/>
<path d="M950 1105 c0 -20 5 -25 25 -25 20 0 25 5 25 25 0 20 -5 25 -25 25
-20 0 -25 -5 -25 -25z"/>
<path d="M1050 1105 c0 -20 5 -25 25 -25 20 0 25 5 25 25 0 20 -5 25 -25 25
-20 0 -25 -5 -25 -25z"/>
<path d="M1150 1105 c0 -20 5 -25 25 -25 20 0 25 5 25 25 0 20 -5 25 -25 25
-20 0 -25 -5 -25 -25z"/>
<path d="M390 395 c0 -20 5 -25 25 -25 20 0 25 5 25 25 0 20 -5 25 -25 25 -20
0 -25 -5 -25 -25z"/>
<path d="M390 295 c0 -20 5 -25 25 -25 20 0 25 5 25 25 0 20 -5 25 -25 25 -20
0 -25 -5 -25 -25z"/>
<path d="M390 195 c0 -20 5 -25 25 -25 20 0 25 5 25 25 0 20 -5 25 -25 25 -20
0 -25 -5 -25 -25z"/>
</g>
</svg>
