<?xml version="1.0" standalone="no"?>
<!DOCTYPE svg PUBLIC "-//W3C//DTD SVG 20010904//EN"
 "http://www.w3.org/TR/2001/REC-SVG-20010904/DTD/svg10.dtd">
<svg version="1.0" xmlns="http://www.w3.org/2000/svg"
 width="150.000000px" height="150.000000px" viewBox="0 0 150.000000 150.000000"
 preserveAspectRatio="xMidYMid meet">
<metadata>
Created by potrace 1.10, written by Peter Selinger 2001-2011
</metadata>
<g transform="translate(0.000000,150.000000) scale(0.100000,-0.100000)"
fill="#ffffff" stroke="none">
<path d="M730 1254 l0 -46 -36 22 c-27 15 -40 18 -48 10 -11 -11 4 -28 50 -56
17 -11 16 -13 -18 -30 -36 -17 -46 -32 -32 -47 4 -3 24 3 45 14 l39 19 0 -45
c0 -38 3 -45 20 -45 17 0 20 7 20 45 l0 45 39 -19 c21 -11 41 -17 45 -14 14
15 4 30 -31 47 -35 17 -36 19 -19 30 46 28 61 45 50 56 -8 8 -21 5 -48 -10
l-36 -22 0 46 c0 39 -3 46 -20 46 -17 0 -20 -7 -20 -46z"/>
<path d="M300 705 l0 -195 50 0 50 0 0 145 0 145 310 0 310 0 0 -25 c0 -23 -3
-25 -50 -25 -27 0 -50 -3 -50 -6 0 -17 154 -264 160 -257 10 12 150 253 150
258 0 3 -25 5 -55 5 l-55 0 0 75 0 75 -410 0 -410 0 0 -195z"/>
<path d="M270 290 l0 -80 80 0 80 0 0 80 0 80 -80 0 -80 0 0 -80z"/>
<path d="M990 290 l0 -80 80 0 80 0 0 80 0 80 -80 0 -80 0 0 -80z"/>
</g>
</svg>
