<?xml version="1.0" standalone="no"?>
<!DOCTYPE svg PUBLIC "-//W3C//DTD SVG 20010904//EN"
 "http://www.w3.org/TR/2001/REC-SVG-20010904/DTD/svg10.dtd">
<svg version="1.0" xmlns="http://www.w3.org/2000/svg"
 width="150.000000px" height="150.000000px" viewBox="0 0 150.000000 150.000000"
 preserveAspectRatio="xMidYMid meet">
<metadata>
Created by potrace 1.10, written by Peter Selinger 2001-2011
</metadata>
<g transform="translate(0.000000,150.000000) scale(0.100000,-0.100000)"
fill="#616161" stroke="none">
<path d="M520 755 l0 -675 230 0 230 0 0 675 0 675 -25 0 -25 0 0 -185 0 -185
-180 0 -180 0 0 185 0 185 -25 0 -25 0 0 -675z m410 125 l0 -130 -180 0 -180
0 0 130 0 130 180 0 180 0 0 -130z m0 -310 l0 -130 -180 0 -180 0 0 130 0 130
180 0 180 0 0 -130z m0 -310 l0 -130 -180 0 -180 0 0 130 0 130 180 0 180 0 0
-130z"/>
<path d="M670 880 l0 -80 80 0 80 0 0 80 0 80 -80 0 -80 0 0 -80z"/>
<path d="M730 1385 c0 -20 5 -25 25 -25 20 0 25 5 25 25 0 20 -5 25 -25 25
-20 0 -25 -5 -25 -25z"/>
<path d="M730 1285 c0 -20 5 -25 25 -25 20 0 25 5 25 25 0 20 -5 25 -25 25
-20 0 -25 -5 -25 -25z"/>
<path d="M730 1185 c0 -20 5 -25 25 -25 20 0 25 5 25 25 0 20 -5 25 -25 25
-20 0 -25 -5 -25 -25z"/>
</g>
</svg>
