<?xml version="1.0" standalone="no"?>
<!DOCTYPE svg PUBLIC "-//W3C//DTD SVG 20010904//EN"
 "http://www.w3.org/TR/2001/REC-SVG-20010904/DTD/svg10.dtd">
<svg version="1.0" xmlns="http://www.w3.org/2000/svg"
 width="150.000000px" height="150.000000px" viewBox="0 0 150.000000 150.000000"
 preserveAspectRatio="xMidYMid meet">
<metadata>
Created by potrace 1.10, written by Peter Selinger 2001-2011
</metadata>
<g transform="translate(0.000000,150.000000) scale(0.100000,-0.100000)"
fill="#616161" stroke="none">
<path d="M180 1000 l0 -120 35 0 35 0 0 120 0 120 -35 0 -35 0 0 -120z"/>
<path d="M332 1107 c1 -9 53 -175 113 -371 l110 -356 38 0 c20 0 37 1 37 3 0
1 -51 166 -113 367 l-113 365 -38 3 c-29 3 -37 0 -34 -11z"/>
<path d="M1240 1000 l0 -120 35 0 35 0 0 120 0 120 -35 0 -35 0 0 -120z"/>
<path d="M857 1085 c-22 -7 -49 -23 -62 -35 -57 -54 -91 -204 -82 -360 13
-199 68 -290 188 -306 99 -14 182 37 221 134 21 51 23 73 22 222 0 147 -2 171
-22 222 -46 114 -153 164 -265 123z m139 -83 c52 -41 59 -74 59 -262 0 -188
-7 -221 -59 -262 -32 -27 -98 -23 -134 7 -44 37 -57 97 -57 260 1 161 12 213
56 249 37 31 102 35 135 8z"/>
</g>
</svg>
