<?xml version="1.0" standalone="no"?>
<!DOCTYPE svg PUBLIC "-//W3C//DTD SVG 20010904//EN"
 "http://www.w3.org/TR/2001/REC-SVG-20010904/DTD/svg10.dtd">
<svg version="1.0" xmlns="http://www.w3.org/2000/svg"
 width="150.000000px" height="150.000000px" viewBox="0 0 150.000000 150.000000"
 preserveAspectRatio="xMidYMid meet">
<metadata>
Created by potrace 1.10, written by Peter Selinger 2001-2011
</metadata>
<g transform="translate(0.000000,150.000000) scale(0.100000,-0.100000)"
fill="#ffffff" stroke="none">
<path d="M140 900 l0 -230 180 0 180 0 0 230 0 230 -180 0 -180 0 0 -230z
m310 0 l0 -180 -130 0 -130 0 0 180 0 180 130 0 130 0 0 -180z"/>
<path d="M240 900 l0 -80 80 0 80 0 0 80 0 80 -80 0 -80 0 0 -80z"/>
<path d="M540 1055 l0 -75 210 0 210 0 0 75 0 75 -210 0 -210 0 0 -75z"/>
<path d="M540 855 l0 -75 415 0 415 0 0 75 0 75 -415 0 -415 0 0 -75z"/>
<path d="M540 655 l0 -75 260 0 260 0 0 75 0 75 -260 0 -260 0 0 -75z"/>
<path d="M540 455 l0 -75 260 0 260 0 0 75 0 75 -260 0 -260 0 0 -75z"/>
</g>
</svg>
