<?xml version="1.0" standalone="no"?>
<!DOCTYPE svg PUBLIC "-//W3C//DTD SVG 20010904//EN"
 "http://www.w3.org/TR/2001/REC-SVG-20010904/DTD/svg10.dtd">
<svg version="1.0" xmlns="http://www.w3.org/2000/svg"
 width="150.000000px" height="150.000000px" viewBox="0 0 150.000000 150.000000"
 preserveAspectRatio="xMidYMid meet">
<metadata>
Created by potrace 1.10, written by Peter Selinger 2001-2011
</metadata>
<g transform="translate(0.000000,150.000000) scale(0.100000,-0.100000)"
fill="#616161" stroke="none">
<path d="M110 1205 l0 -75 320 0 320 0 0 75 0 75 -320 0 -320 0 0 -75z"/>
<path d="M260 905 l0 -75 75 0 75 0 0 75 0 75 -75 0 -75 0 0 -75z"/>
<path d="M560 905 l0 -75 415 0 415 0 0 75 0 75 -415 0 -415 0 0 -75z"/>
<path d="M260 605 l0 -75 75 0 75 0 0 75 0 75 -75 0 -75 0 0 -75z"/>
<path d="M560 605 l0 -75 415 0 415 0 0 75 0 75 -415 0 -415 0 0 -75z"/>
<path d="M260 305 l0 -75 75 0 75 0 0 75 0 75 -75 0 -75 0 0 -75z"/>
<path d="M560 305 l0 -75 415 0 415 0 0 75 0 75 -415 0 -415 0 0 -75z"/>
</g>
</svg>
